<svg width="147" height="48" viewBox="0 0 147 48" fill="none" xmlns="http://www.w3.org/2000/svg">
<g clip-path="url(#clip0_3_116)">
<path fill-rule="evenodd" clip-rule="evenodd" d="M9.802 29.39L13.581 16.56C13.855 15.68 14.567 14.468 16.264 14.468C17.907 14.468 19.386 15.46 19.386 17.277C19.386 17.827 19.276 18.267 19.002 18.983L14.074 32.913C13.088 35.556 12.486 36.493 10.021 36.493H9.583C7.064 36.493 6.243 35.556 5.257 32.858L0.383 18.983C0.11 18.268 0 17.827 0 17.277C0 15.404 1.533 14.468 3.121 14.468C4.819 14.468 5.531 15.68 5.805 16.561L9.583 29.39H9.803H9.802ZM70.205 33.244C70.205 35.171 71.465 36.492 73.162 36.492C74.969 36.492 76.174 35.171 76.174 33.244V4.062C76.174 2.135 74.914 0.814003 73.162 0.814003C71.41 0.814003 70.205 2.135 70.205 4.062V33.244ZM81.048 33.244C81.048 35.171 82.308 36.492 84.005 36.492C85.812 36.492 87.017 35.171 87.017 33.244V17.662C87.017 15.79 85.757 14.468 84.005 14.468C82.252 14.468 81.048 15.79 81.048 17.662V33.244ZM111.386 24.214C111.386 17.607 107.826 14.248 101.474 14.248C95.067 14.248 91.562 17.552 91.562 24.269V33.299C91.562 35.171 92.822 36.492 94.574 36.492C96.381 36.492 97.586 35.171 97.586 33.299V23.333C97.586 20.58 99.064 19.369 101.474 19.369C103.993 19.369 105.307 20.966 105.307 23.333V33.3C105.307 35.172 106.622 36.493 108.374 36.493C110.126 36.493 111.386 35.172 111.386 33.3V24.214ZM22.562 26.582C22.562 33.244 26.122 36.548 32.474 36.548C38.881 36.548 42.386 33.244 42.386 26.527V17.497C42.386 15.57 41.126 14.303 39.429 14.303C37.621 14.303 36.417 15.625 36.417 17.497V27.517C36.417 30.271 34.883 31.482 32.474 31.482C29.9 31.482 28.641 29.885 28.641 27.518V17.497C28.641 15.57 27.381 14.303 25.683 14.303C23.931 14.303 22.617 15.625 22.617 17.497V26.582H22.562ZM126.172 14.248C119.545 14.248 115.164 18.708 115.164 25.48C115.164 32.363 119.052 36.548 124.638 36.548C127.322 36.548 129.183 35.722 130.169 34.675V38.089C130.169 40.897 128.8 42.659 125.35 42.659C121.9 42.659 120.476 40.952 118.56 40.952C117.355 40.952 116.37 42.164 116.37 43.485C116.37 46.018 121.188 48 124.857 48C132.469 48 135.864 43.76 135.864 37.263V19.203C135.864 17.277 134.769 16.34 133.126 15.57C131.812 15.074 129.512 14.248 126.172 14.248ZM130.169 25.315C130.169 29.39 128.636 31.427 125.624 31.427C122.612 31.427 121.134 29.83 121.134 25.536C121.134 21.736 122.612 19.314 126.336 19.314C128.8 19.314 130.169 20.36 130.169 21.076V25.315ZM63.633 27.463H51.914C52.298 29.885 53.502 31.593 56.569 31.593C59.581 31.593 61.169 30.436 62.702 30.436C63.907 30.436 64.892 31.702 64.892 32.858C64.892 35.226 60.895 36.438 56.514 36.438C50.052 36.438 46.054 32.198 46.054 25.37C46.054 18.543 49.998 14.083 56.35 14.083C63.14 14.083 66.098 18.598 66.098 24.82C66.098 26.527 65.386 27.463 63.633 27.463ZM60.457 23.443C60.293 20.635 58.979 18.873 56.186 18.873C53.448 18.873 52.188 20.14 51.914 23.443H60.457Z" fill="white"/>
<path fill-rule="evenodd" clip-rule="evenodd" d="M146.44 5.257C146.443 7.422 145.063 8.947 142.755 8.949C140.448 8.952 139.121 7.429 139.119 5.263C139.119 3.152 140.443 1.63 142.75 1.627C145.057 1.627 146.438 3.144 146.44 5.257Z" fill="#FFCC00"/>
</g>
<defs>
<clipPath id="clip0_3_116">
<rect width="147" height="48" fill="white"/>
</clipPath>
</defs>
</svg>
